<?xml version="1.0" encoding="utf-8"?><svg xmlns="http://www.w3.org/2000/svg" xmlns:xlink="http://www.w3.org/1999/xlink" width="1792" height="158" preserveAspectRatio="xMidYMid" viewBox="0 0 1792 158" style="z-index:1;margin-right:-2px;display:block;background-repeat-y:initial;background-repeat-x:initial;background-color:rgb(241, 242, 243);animation-play-state:paused" ><g transform="translate(896,79) scale(-1,-1) translate(-896,-79)" style="transform:matrix(-1, 0, 0, -1, 1792, 158);animation-play-state:paused" ><linearGradient id="lg-0.15613931460320685" x1="0" x2="1" y1="0" y2="0" style="animation-play-state:paused" ><stop stop-color="#fbbecc" offset="0" style="animation-play-state:paused" ></stop>

  
<stop stop-color="#f25574" offset="1" style="animation-play-state:paused" ></stop></linearGradient>
<path d="M 0 0 L 0 193.268 Q 179.2 214.54 358.4 171.369 T 716.8 136.738 T 1075.2 122.259 T 1433.6 105.273 T 1792 80.9316 L 1792 0 Z" fill="url(#lg-0.15613931460320685)" opacity="0.23" style="opacity:0.23;animation-play-state:paused" ></path>
<path d="M 0 0 L 0 195.799 Q 179.2 201.616 358.4 170.515 T 716.8 147.955 T 1075.2 118.37 T 1433.6 102.208 T 1792 71.9245 L 1792 0 Z" fill="url(#lg-0.15613931460320685)" opacity="0.23" style="opacity:0.23;animation-play-state:paused" ></path>
<path d="M 0 0 L 0 195.711 Q 179.2 188.157 358.4 165.301 T 716.8 136.404 T 1075.2 117.696 T 1433.6 104.099 T 1792 84.2223 L 1792 0 Z" fill="url(#lg-0.15613931460320685)" opacity="0.23" style="opacity:0.23;animation-play-state:paused" ></path>
<path d="M 0 0 L 0 191.181 Q 179.2 197.743 358.4 162.18 T 716.8 140.653 T 1075.2 124.957 T 1433.6 105.493 T 1792 77.0301 L 1792 0 Z" fill="url(#lg-0.15613931460320685)" opacity="0.23" style="opacity:0.23;animation-play-state:paused" ></path>
<path d="M 0 0 L 0 188.502 Q 179.2 186.135 358.4 159.947 T 716.8 146.68 T 1075.2 138.895 T 1433.6 107.781 T 1792 84.6337 L 1792 0 Z" fill="url(#lg-0.15613931460320685)" opacity="0.23" style="opacity:0.23;animation-play-state:paused" ></path></g></svg>