<?xml version="1.0" encoding="utf-8"?><svg xmlns="http://www.w3.org/2000/svg" xmlns:xlink="http://www.w3.org/1999/xlink" width="2038" height="101" preserveAspectRatio="xMidYMid" viewBox="0 0 2038 101" style="z-index:1;margin-right:-2px;display:block;background-repeat-y:initial;background-repeat-x:initial;background-color:rgb(255, 255, 255);animation-play-state:paused" ><g transform="translate(1019,50.5) scale(-1,-1) translate(-1019,-50.5)" style="transform:matrix(-1, 0, 0, -1, 2038, 101);animation-play-state:paused" ><linearGradient id="lg-0.1090874416472225" x1="0" x2="1" y1="0" y2="0" style="animation-play-state:paused" ><stop stop-color="#ff2352" offset="0" style="animation-play-state:paused" ></stop>

  
<stop stop-color="#ffadbc" offset="1" style="animation-play-state:paused" ></stop></linearGradient>
<path d="M 0 0 L 0 122.21 Q 254.75 140.52 509.5 99.7682 T 1019 77.3265 T 1528.5 54.8847 T 2038 32.443 L 2038 0 Z" fill="url(#lg-0.1090874416472225)" opacity="0.18" style="opacity:0.18;animation-play-state:paused" ></path>
<path d="M 0 0 L 0 122.21 Q 254.75 140.413 509.5 99.8922 T 1019 77.5744 T 1528.5 55.2566 T 2038 32.9388 L 2038 0 Z" fill="url(#lg-0.1090874416472225)" opacity="0.18" style="opacity:0.18;animation-play-state:paused" ></path>
<path d="M 0 0 L 0 122.21 Q 254.75 115.983 509.5 99.3973 T 1019 76.5846 T 1528.5 53.7719 T 2038 30.9592 L 2038 0 Z" fill="url(#lg-0.1090874416472225)" opacity="0.18" style="opacity:0.18;animation-play-state:paused" ></path>
<path d="M 0 0 L 0 122.21 Q 254.75 120.149 509.5 97.5516 T 1019 72.8933 T 1528.5 48.2349 T 2038 23.5766 L 2038 0 Z" fill="url(#lg-0.1090874416472225)" opacity="0.18" style="opacity:0.18;animation-play-state:paused" ></path>
<path d="M 0 0 L 0 122.21 Q 254.75 135.636 509.5 97.6899 T 1019 73.1699 T 1528.5 48.6498 T 2038 24.1297 L 2038 0 Z" fill="url(#lg-0.1090874416472225)" opacity="0.18" style="opacity:0.18;animation-play-state:paused" ></path>
<path d="M 0 0 L 0 122.21 Q 254.75 127.899 509.5 97.1118 T 1019 72.0135 T 1528.5 46.9153 T 2038 21.817 L 2038 0 Z" fill="url(#lg-0.1090874416472225)" opacity="0.18" style="opacity:0.18;animation-play-state:paused" ></path>
<path d="M 0 0 L 0 122.21 Q 254.75 124.4 509.5 98.5221 T 1019 74.8341 T 1528.5 51.1462 T 2038 27.4582 L 2038 0 Z" fill="url(#lg-0.1090874416472225)" opacity="0.18" style="opacity:0.18;animation-play-state:paused" ></path></g></svg>