<?xml version="1.0" encoding="utf-8"?><svg xmlns="http://www.w3.org/2000/svg" xmlns:xlink="http://www.w3.org/1999/xlink" width="2451" height="120" preserveAspectRatio="xMidYMid" viewBox="0 0 2451 120" style="z-index:1;margin-right:-2px;display:block;background-repeat-y:initial;background-repeat-x:initial;animation-play-state:paused" ><g transform="translate(1225.5,60) scale(-1,-1) translate(-1225.5,-60)" style="transform:matrix(-1, 0, 0, -1, 2451, 120);animation-play-state:paused" ><linearGradient id="lg-0.5797007634956521" x1="0" x2="1" y1="0" y2="0" style="animation-play-state:paused" ><stop stop-color="#ffd3d3" offset="0" style="animation-play-state:paused" ></stop>

  
<stop stop-color="#ff1545" offset="1" style="animation-play-state:paused" ></stop></linearGradient>
<path d="M 0 0 L 0 118.005 Q 204.25 122.351 408.5 107.645 T 817 88.7617 T 1225.5 75.3078 T 1634 64.6571 T 2042.5 68.5439 T 2451 54.9679 L 2451 0 Z" fill="url(#lg-0.5797007634956521)" opacity="0.23" style="opacity:0.23;animation-play-state:paused" ></path>
<path d="M 0 0 L 0 103.901 Q 204.25 141.306 408.5 105.28 T 817 87.5481 T 1225.5 81.7733 T 1634 66.5749 T 2042.5 49.8208 T 2451 53.3615 L 2451 0 Z" fill="url(#lg-0.5797007634956521)" opacity="0.23" style="opacity:0.23;animation-play-state:paused" ></path>
<path d="M 0 0 L 0 110.457 Q 204.25 134.083 408.5 103.341 T 817 96.2447 T 1225.5 84.5616 T 1634 64.5597 T 2042.5 57.586 T 2451 42.4365 L 2451 0 Z" fill="url(#lg-0.5797007634956521)" opacity="0.23" style="opacity:0.23;animation-play-state:paused" ></path>
<path d="M 0 0 L 0 102.402 Q 204.25 136.843 408.5 100.287 T 817 90.7185 T 1225.5 90.6625 T 1634 77.7763 T 2042.5 58.8221 T 2451 53.4173 L 2451 0 Z" fill="url(#lg-0.5797007634956521)" opacity="0.23" style="opacity:0.23;animation-play-state:paused" ></path>
<path d="M 0 0 L 0 105.855 Q 204.25 117.139 408.5 95.5776 T 817 84.4403 T 1225.5 79.1167 T 1634 69.8173 T 2042.5 55.8902 T 2451 51.4647 L 2451 0 Z" fill="url(#lg-0.5797007634956521)" opacity="0.23" style="opacity:0.23;animation-play-state:paused" ></path>
<path d="M 0 0 L 0 106.951 Q 204.25 127.274 408.5 96.4286 T 817 90.7731 T 1225.5 90.2087 T 1634 71.6312 T 2042.5 64.0369 T 2451 62.0902 L 2451 0 Z" fill="url(#lg-0.5797007634956521)" opacity="0.23" style="opacity:0.23;animation-play-state:paused" ></path>
<path d="M 0 0 L 0 113.501 Q 204.25 134.941 408.5 99.2212 T 817 89.3428 T 1225.5 85.6817 T 1634 66.6383 T 2042.5 54.1377 T 2451 54.9506 L 2451 0 Z" fill="url(#lg-0.5797007634956521)" opacity="0.23" style="opacity:0.23;animation-play-state:paused" ></path></g></svg>